<svg xmlns="http://www.w3.org/2000/svg" xmlns:xlink="http://www.w3.org/1999/xlink" width="500" zoomAndPan="magnify" viewBox="0 0 375 374.999991" height="500" preserveAspectRatio="xMidYMid meet" version="1.0"><defs><g/><clipPath id="dddffd424d"><path d="M 49.980469 36.132812 L 325.019531 36.132812 L 325.019531 339 L 49.980469 339 Z M 49.980469 36.132812 " clip-rule="nonzero"/></clipPath><clipPath id="b7236b57f5"><path d="M 82.230469 36.132812 L 292.769531 36.132812 C 310.578125 36.132812 325.019531 50.570312 325.019531 68.382812 L 325.019531 306.617188 C 325.019531 324.429688 310.578125 338.867188 292.769531 338.867188 L 82.230469 338.867188 C 64.421875 338.867188 49.980469 324.429688 49.980469 306.617188 L 49.980469 68.382812 C 49.980469 50.570312 64.421875 36.132812 82.230469 36.132812 Z M 82.230469 36.132812 " clip-rule="nonzero"/></clipPath></defs><g clip-path="url(#dddffd424d)"><g clip-path="url(#b7236b57f5)"><path fill="#059669" d="M 49.980469 36.132812 L 325.019531 36.132812 L 325.019531 339.101562 L 49.980469 339.101562 Z M 49.980469 36.132812 " fill-opacity="1" fill-rule="nonzero"/></g></g><g fill="#ffffff" fill-opacity="1"><g transform="translate(123.460616, 255.014377)"><g><path d="M 6.796875 -115 L 6.796875 -139.265625 L 121.1875 -139.265625 L 121.1875 -115 L 78.546875 -115 L 78.546875 0 L 49.4375 0 L 49.4375 -115 Z M 6.796875 -115 "/></g></g></g></svg>